<mxfile host="app.diagrams.net" modified="2023-11-08T12:36:03.675Z" agent="Mozilla/5.0 (Windows NT 10.0; Win64; x64) AppleWebKit/537.36 (KHTML, like Gecko) Chrome/119.0.0.0 Safari/537.36" etag="Jd34wa4obv4yNNnwbgrL" version="22.0.8" type="github">
  <diagram name="Page-1" id="G2jzhqXEAv7YhJS4buqm">
    <mxGraphModel dx="890" dy="925" grid="1" gridSize="10" guides="1" tooltips="1" connect="1" arrows="1" fold="1" page="1" pageScale="1" pageWidth="850" pageHeight="1100" math="0" shadow="0">
      <root>
        <mxCell id="0" />
        <mxCell id="1" parent="0" />
        <mxCell id="biZpwZt59yJlUxzHEALL-1" value="Smart Cities Energy Management" style="swimlane;whiteSpace=wrap;html=1;" vertex="1" parent="1">
          <mxGeometry x="240" y="110" width="370" height="440" as="geometry" />
        </mxCell>
        <mxCell id="biZpwZt59yJlUxzHEALL-14" style="edgeStyle=orthogonalEdgeStyle;rounded=0;orthogonalLoop=1;jettySize=auto;html=1;exitX=0.5;exitY=1;exitDx=0;exitDy=0;entryX=0.5;entryY=0;entryDx=0;entryDy=0;" edge="1" parent="biZpwZt59yJlUxzHEALL-1" source="biZpwZt59yJlUxzHEALL-4" target="biZpwZt59yJlUxzHEALL-7">
          <mxGeometry relative="1" as="geometry" />
        </mxCell>
        <mxCell id="biZpwZt59yJlUxzHEALL-4" value="Record Energy Consumption" style="ellipse;whiteSpace=wrap;html=1;" vertex="1" parent="biZpwZt59yJlUxzHEALL-1">
          <mxGeometry x="140" y="50" width="120" height="80" as="geometry" />
        </mxCell>
        <mxCell id="biZpwZt59yJlUxzHEALL-7" value="Verify Energy Transactions" style="ellipse;whiteSpace=wrap;html=1;" vertex="1" parent="biZpwZt59yJlUxzHEALL-1">
          <mxGeometry x="140" y="160" width="120" height="80" as="geometry" />
        </mxCell>
        <mxCell id="biZpwZt59yJlUxzHEALL-8" value="Optimize Energy Distribution" style="ellipse;whiteSpace=wrap;html=1;" vertex="1" parent="biZpwZt59yJlUxzHEALL-1">
          <mxGeometry x="140" y="290" width="120" height="80" as="geometry" />
        </mxCell>
        <mxCell id="biZpwZt59yJlUxzHEALL-22" value="" style="endArrow=classic;html=1;rounded=0;entryX=0.5;entryY=0;entryDx=0;entryDy=0;exitX=0.5;exitY=1;exitDx=0;exitDy=0;" edge="1" parent="biZpwZt59yJlUxzHEALL-1" source="biZpwZt59yJlUxzHEALL-7" target="biZpwZt59yJlUxzHEALL-8">
          <mxGeometry width="50" height="50" relative="1" as="geometry">
            <mxPoint x="150" y="280" as="sourcePoint" />
            <mxPoint x="200" y="230" as="targetPoint" />
          </mxGeometry>
        </mxCell>
        <mxCell id="biZpwZt59yJlUxzHEALL-2" value="Smart Meters" style="shape=umlActor;verticalLabelPosition=bottom;verticalAlign=top;html=1;outlineConnect=0;" vertex="1" parent="1">
          <mxGeometry x="110" y="140" width="30" height="60" as="geometry" />
        </mxCell>
        <mxCell id="biZpwZt59yJlUxzHEALL-3" value="Energy Authority" style="shape=umlActor;verticalLabelPosition=bottom;verticalAlign=top;html=1;outlineConnect=0;" vertex="1" parent="1">
          <mxGeometry x="700" y="140" width="30" height="60" as="geometry" />
        </mxCell>
        <mxCell id="biZpwZt59yJlUxzHEALL-6" value="Consumers" style="shape=umlActor;verticalLabelPosition=bottom;verticalAlign=top;html=1;outlineConnect=0;" vertex="1" parent="1">
          <mxGeometry x="140" y="350" width="30" height="60" as="geometry" />
        </mxCell>
        <mxCell id="biZpwZt59yJlUxzHEALL-16" value="" style="endArrow=classic;html=1;rounded=0;exitX=1;exitY=0.3333333333333333;exitDx=0;exitDy=0;exitPerimeter=0;entryX=0;entryY=0.5;entryDx=0;entryDy=0;" edge="1" parent="1" source="biZpwZt59yJlUxzHEALL-2" target="biZpwZt59yJlUxzHEALL-4">
          <mxGeometry width="50" height="50" relative="1" as="geometry">
            <mxPoint x="390" y="390" as="sourcePoint" />
            <mxPoint x="440" y="340" as="targetPoint" />
          </mxGeometry>
        </mxCell>
        <mxCell id="biZpwZt59yJlUxzHEALL-17" value="" style="endArrow=classic;html=1;rounded=0;exitX=1;exitY=0.3333333333333333;exitDx=0;exitDy=0;exitPerimeter=0;entryX=-0.01;entryY=0.266;entryDx=0;entryDy=0;entryPerimeter=0;" edge="1" parent="1" source="biZpwZt59yJlUxzHEALL-2" target="biZpwZt59yJlUxzHEALL-7">
          <mxGeometry width="50" height="50" relative="1" as="geometry">
            <mxPoint x="390" y="390" as="sourcePoint" />
            <mxPoint x="440" y="340" as="targetPoint" />
          </mxGeometry>
        </mxCell>
        <mxCell id="biZpwZt59yJlUxzHEALL-18" value="" style="endArrow=classic;html=1;rounded=0;exitX=0;exitY=0.3333333333333333;exitDx=0;exitDy=0;exitPerimeter=0;entryX=1;entryY=0.5;entryDx=0;entryDy=0;" edge="1" parent="1" source="biZpwZt59yJlUxzHEALL-3" target="biZpwZt59yJlUxzHEALL-7">
          <mxGeometry width="50" height="50" relative="1" as="geometry">
            <mxPoint x="390" y="390" as="sourcePoint" />
            <mxPoint x="440" y="340" as="targetPoint" />
          </mxGeometry>
        </mxCell>
        <mxCell id="biZpwZt59yJlUxzHEALL-19" value="" style="endArrow=classic;html=1;rounded=0;exitX=0;exitY=0.3333333333333333;exitDx=0;exitDy=0;exitPerimeter=0;entryX=0.948;entryY=0.25;entryDx=0;entryDy=0;entryPerimeter=0;" edge="1" parent="1" source="biZpwZt59yJlUxzHEALL-3" target="biZpwZt59yJlUxzHEALL-8">
          <mxGeometry width="50" height="50" relative="1" as="geometry">
            <mxPoint x="390" y="390" as="sourcePoint" />
            <mxPoint x="440" y="340" as="targetPoint" />
          </mxGeometry>
        </mxCell>
        <mxCell id="biZpwZt59yJlUxzHEALL-20" value="" style="endArrow=classic;html=1;rounded=0;entryX=1;entryY=0.3333333333333333;entryDx=0;entryDy=0;entryPerimeter=0;exitX=0.073;exitY=0.766;exitDx=0;exitDy=0;exitPerimeter=0;" edge="1" parent="1" source="biZpwZt59yJlUxzHEALL-4" target="biZpwZt59yJlUxzHEALL-6">
          <mxGeometry width="50" height="50" relative="1" as="geometry">
            <mxPoint x="390" y="390" as="sourcePoint" />
            <mxPoint x="440" y="340" as="targetPoint" />
          </mxGeometry>
        </mxCell>
        <mxCell id="biZpwZt59yJlUxzHEALL-23" value="" style="endArrow=classic;html=1;rounded=0;entryX=1;entryY=0.3333333333333333;entryDx=0;entryDy=0;entryPerimeter=0;exitX=0.052;exitY=0.844;exitDx=0;exitDy=0;exitPerimeter=0;" edge="1" parent="1" source="biZpwZt59yJlUxzHEALL-7" target="biZpwZt59yJlUxzHEALL-6">
          <mxGeometry width="50" height="50" relative="1" as="geometry">
            <mxPoint x="390" y="390" as="sourcePoint" />
            <mxPoint x="440" y="340" as="targetPoint" />
          </mxGeometry>
        </mxCell>
      </root>
    </mxGraphModel>
  </diagram>
</mxfile>
